<svg version="1.2" xmlns="http://www.w3.org/2000/svg" viewBox="0 0 4200 2940" width="50" height="50">
	<title>br-svg</title>
	<defs>
		<clipPath clipPathUnits="userSpaceOnUse" id="cp1">
			<path d="m2100 2205c-406.45 0-735-328.55-735-735 0-406.45 328.55-735 735-735 406.45 0 735 328.55 735 735 0 406.45-328.55 735-735 735z"/>
		</clipPath>
		<clipPath clipPathUnits="userSpaceOnUse" id="cp2">
			<path d="m2327.99 1370.73l27.91-64.19 57.78 25.12-9.17 21.09-28.89-12.56-4.79 11 28.89 12.56-13.96 32.1z"/>
		</clipPath>
		<clipPath clipPathUnits="userSpaceOnUse" id="cp3">
			<path d="m2327.99 1370.73l27.91-64.19 57.78 25.12-9.17 21.09-28.89-12.56-4.79 11 28.89 12.56-13.96 32.1z"/>
		</clipPath>
	</defs>
	<style>
		.s0 { fill: #fedf00 } 
		.s1 { fill: #002776 } 
		.s2 { fill: #ffffff } 
		.s3 { fill: #009b3a } 
	</style>
	<path id="Layer" class="s0" d="m357 1470l1743 1113 1743-1113-1743-1113z"/>
	<path id="Layer" class="s1" d="m2100 2205c-406.5 0-735-328.5-735-735 0-406.5 328.5-735 735-735 406.5 0 735 328.5 735 735 0 406.5-328.5 735-735 735z"/>
	<g id="Clip-Path" clip-path="url(#cp1)">
		<path id="Layer" class="s2" d="m-105 2940c0-473.4 188.1-927.4 522.8-1262.2 334.8-334.7 788.8-522.8 1262.2-522.8 473.4 0 927.4 188.1 1262.2 522.8 334.7 334.8 522.8 788.8 522.8 1262.2h-105c0-445.6-177-872.9-492.1-1187.9-315-315.1-742.3-492.1-1187.9-492.1-445.6 0-872.9 177-1187.9 492.1-315.1 315-492.1 742.3-492.1 1187.9z"/>
	</g>
	<g id="Layer">
		<path id="b" fill-rule="evenodd" class="s3" d="m1449.8 1247.7c-6.7-5.8-11.1-14.2-12.2-23.4-1.1-9.3 1.1-18.5 6.1-25.7 5.1-7.3 12.6-11.9 20.9-12.9 8.3-1 16.7 1.6 23.4 7.4 6.6 5.8 11 14.3 12.1 23.5 1.2 9.2-1.1 18.4-6.1 25.7-5.1 7.2-12.6 11.8-20.9 12.9-8.3 1-16.7-1.7-23.3-7.5zm21.7-5.5c4.9-0.5 9.3-3.4 12.2-7.9 3-4.6 4.2-10.3 3.5-16.1-0.7-5.8-3.3-11.1-7.3-14.8-3.9-3.7-8.8-5.4-13.7-4.8-4.9 0.6-9.3 3.4-12.2 8-3 4.5-4.2 10.3-3.5 16.1 0.7 5.8 3.3 11.1 7.3 14.7 3.9 3.7 8.9 5.4 13.7 4.8z"/>
		<g id="h">
			<path id="c" fill-rule="evenodd" class="s3" d="m1526.3 1178.9l39.9-2.8c5.8-0.4 11.5 1.6 16 5.4 4.4 3.8 7.1 9.2 7.5 15.1 0.4 5.8-1.6 11.5-5.4 15.9-3.8 4.4-9.2 7.1-15 7.5l-28 2 1.8 25.9-12.9 0.9zm14.1 30.1l26.9-1.9c2.4-0.1 4.6-1.2 6.2-3 1.6-1.8 2.3-4.2 2.2-6.6-0.2-2.4-1.3-4.6-3.1-6.1-1.8-1.6-4.1-2.4-6.5-2.2l-27 1.9z"/>
			<path id="Layer" class="s3" d="m1589.5 1244.7c-0.7-10-2.2-31.9-17.2-30.9l-18.9 1.3c21.9-1.5 23.5 20.4 24.1 30.4"/>
		</g>
		<path id="i" fill-rule="evenodd" class="s3" d="m1617.7 1173.3l33-0.6c3.9 0 7.8 0.7 11.5 2.1 3.6 1.5 7 3.6 9.8 6.4 2.8 2.7 5.1 6 6.7 9.6 1.6 3.6 2.4 7.5 2.5 11.4l0.1 10c0.1 4-0.6 7.9-2 11.5-1.5 3.7-3.6 7-6.4 9.9-2.7 2.8-6 5.1-9.6 6.6-3.6 1.6-7.5 2.5-11.4 2.5l-33 0.6zm14 56.8l19-0.4c2.5 0 4.9-0.5 7.2-1.5 2.3-1 4.4-2.5 6.1-4.3 1.7-1.8 3.1-3.9 4-6.2 0.9-2.3 1.4-4.8 1.3-7.3l-0.1-6c0-2.5-0.5-4.9-1.5-7.2-1-2.3-2.5-4.4-4.3-6.1-1.8-1.8-3.9-3.1-6.2-4-2.3-0.9-4.8-1.4-7.3-1.4l-19 0.4z"/>
		<path id="j" class="s3" d="m1707.8 1242.4l62.9 2.2 0.5-13-51-1.7 0.6-18 40 1.4 0.4-12-39.9-1.4 0.4-14 48 1.7 0.5-13-60-2.1z"/>
		<path id="k" class="s3" d="m1796.6 1246.2l11.9 1.1 4.2-47.9 9.8 49.1 10.9 0.9 18.2-46.6-4.2 47.9 11.9 1 6.1-69.7-17.4-1.6-18.1 46.6-9.8-49-17.4-1.5z"/>
		<path id="l" class="s3" d="m1941.6 1262.6l51.7 8.9 2.1-11.9-39.9-6.8 2.7-15.8 32.5 5.6 2-11.8-32.5-5.6 1.9-10.9 38.6 6.7 2.1-11.8-50.5-8.7z"/>
		<path id="c" fill-rule="evenodd" class="s3" d="m2093 1221.2l38.7 10c5.7 1.4 10.5 5.1 13.5 10.1 3 5 3.8 11 2.3 16.7-1.4 5.6-5.1 10.5-10.1 13.4-5 3-11 3.8-16.7 2.4l-27.1-7-6.5 25.1-12.6-3.2zm3.9 33l26.1 6.8c2.3 0.6 4.8 0.2 6.8-1 2.1-1.2 3.6-3.2 4.2-5.5 0.6-2.3 0.2-4.8-1-6.8-1.2-2.1-3.2-3.6-5.5-4.2l-26.1-6.7z"/>
		<g id="h">
			<path id="c" fill-rule="evenodd" class="s3" d="m2182.4 1245.1l38.2 12.1c5.5 1.7 10.2 5.6 12.9 10.8 2.7 5.2 3.2 11.2 1.4 16.8-1.7 5.5-5.6 10.2-10.8 12.9-5.2 2.7-11.2 3.2-16.8 1.4l-26.7-8.4-7.8 24.8-12.4-3.9zm2.1 33.2l25.8 8.1c2.3 0.7 4.7 0.5 6.8-0.6 2.2-1.1 3.8-3 4.5-5.3 0.7-2.3 0.5-4.7-0.6-6.9-1.1-2.1-3-3.7-5.3-4.4l-25.8-8.1z"/>
			<path id="Layer" class="s3" d="m2217.2 1329.5c3-9.6 9.6-30.5-4.7-35l-18.2-5.8c21 6.7 14.4 27.6 11.4 37.2"/>
		</g>
		<path id="b" fill-rule="evenodd" class="s3" d="m2257.2 1332.6c-3.2-8.2-3.2-17.7 0-26.4 3.3-8.7 9.5-15.9 17.3-20 7.9-4 16.7-4.7 24.5-1.8 7.8 3 14 9.2 17.3 17.4 3.2 8.3 3.2 17.8-0.1 26.4-3.2 8.7-9.4 15.9-17.3 20-7.8 4.1-16.6 4.7-24.4 1.8-7.8-2.9-14.1-9.2-17.3-17.4zm21.8 5.2c4.6 1.7 9.8 1.2 14.5-1.4 4.7-2.7 8.5-7.2 10.6-12.7 2-5.5 2.1-11.4 0.3-16.5-1.8-5.1-5.4-8.9-10-10.6-4.6-1.7-9.8-1.2-14.5 1.5-4.7 2.6-8.5 7.2-10.5 12.6-2 5.5-2.2 11.4-0.4 16.5 1.8 5.1 5.4 8.9 10 10.6z"/>
		<g id="m">
			<g id="Clip-Path" clip-path="url(#cp2)">
				<g id="Clip-Path: b" clip-path="url(#cp3)">
					<path id="b" fill-rule="evenodd" class="s3" d="m2340.5 1365c-2.8-8.4-2.3-17.9 1.4-26.4 3.7-8.5 10.3-15.3 18.4-19 8-3.6 16.8-3.8 24.5-0.5 7.7 3.3 13.5 9.9 16.3 18.3 2.8 8.4 2.3 17.8-1.4 26.4-3.7 8.5-10.3 15.3-18.3 19-8 3.6-16.9 3.8-24.5 0.5-7.7-3.3-13.6-9.9-16.4-18.3zm21.6 6.4c4.5 1.9 9.7 1.7 14.5-0.7 4.9-2.4 8.9-6.8 11.2-12.1 2.3-5.4 2.8-11.3 1.2-16.5-1.5-5.1-4.9-9.1-9.4-11.1-4.5-1.9-9.7-1.7-14.6 0.7-4.8 2.4-8.8 6.8-11.1 12.1-2.4 5.4-2.8 11.3-1.3 16.4 1.6 5.2 5 9.2 9.5 11.2z"/>
				</g>
			</g>
			<path id="Layer" class="s3" d="m2375.4 1353.2l24.3 10.6-4 9.1-24.3-10.5z"/>
			<path id="Layer" class="s3" d="m2390.5 1359.8l9.2 4-13.9 32.1-9.2-4z"/>
		</g>
		<g id="h">
			<path id="c" fill-rule="evenodd" class="s3" d="m2441.4 1344.6l35.8 17.8c5.2 2.6 9.2 7.2 11 12.8 1.9 5.5 1.4 11.5-1.2 16.7-2.6 5.3-7.1 9.2-12.7 11.1-5.5 1.8-11.6 1.4-16.8-1.2l-25-12.5-11.6 23.3-11.7-5.8zm-3.1 33.1l24.2 12c2.1 1.1 4.6 1.3 6.9 0.5 2.2-0.7 4.1-2.4 5.2-4.5 1-2.1 1.2-4.6 0.5-6.9-0.8-2.2-2.4-4.1-4.6-5.2l-24.1-12z"/>
			<path id="Layer" class="s3" d="m2462.5 1433.3c4.4-8.9 14.3-28.6 0.8-35.3l-17-8.5c19.7 9.9 9.9 29.5 5.4 38.5"/>
		</g>
		<path id="j" class="s3" d="m2488.5 1447.1l54.8 31 6.4-11.3-44.4-25.1 8.9-15.7 34.8 19.7 5.9-10.5-34.8-19.7 6.9-12.1 41.8 23.6 6.4-11.3-52.3-29.6z"/>
		<path id="n" class="s3" d="m2590.6 1481.3c-3.8 5.9 0.1 12.5 8.5 17.9 8.4 5.4 14.2 5.2 16.6 1.4 7.6-12-36.6-29.6-23-50.5 11.8-18 31.9-4 39.5 0.8 7.6 4.9 19.8 17.4 10.3 31.8l-12.9-8.2c4.1-6.3-0.4-12.4-7.1-16.7-6.5-4.2-11.8-6.1-15.7 0-6.6 9.8 36.8 28.3 23.5 49.1-9.8 15.4-26.8 8.7-38.2 1.4-9.7-6.1-24.2-20.7-14.8-35.4z"/>
		<path id="n" class="s3" d="m2665.7 1531c-4.1 5.7-0.6 12.5 7.5 18.3 8.2 5.8 13.9 5.9 16.5 2.2 8.3-11.6-35-31.4-20.2-51.6 12.6-17.4 32-2.3 39.3 2.9 7.4 5.2 18.9 18.3 8.7 32.2l-12.5-8.8c4.4-6.1 0.3-12.4-6.2-17.1-6.3-4.5-11.5-6.6-15.7-0.7-7.1 9.4 35.3 30.1 20.9 50.2-10.6 14.9-27.3 7.3-38.3-0.6-9.3-6.6-23-21.9-12.8-36.2z"/>
		<path id="b" fill-rule="evenodd" class="s3" d="m2725.7 1589.6c-0.6-8.8 2.4-17.8 8.2-25.1 5.7-7.2 13.9-12.1 22.6-13.6 8.7-1.5 17.3 0.6 23.8 5.8 6.5 5.2 10.5 13.1 11 21.9 0.6 8.8-2.4 17.9-8.1 25.1-5.8 7.3-14 12.2-22.7 13.7-8.7 1.4-17.2-0.7-23.8-5.9-6.5-5.2-10.5-13.1-11-21.9zm19.1 11.7c3.9 3.1 9 4.2 14.3 3.1 5.2-1 10.3-4.2 13.9-8.8 3.6-4.5 5.6-10.1 5.4-15.5-0.1-5.4-2.4-10.1-6.2-13.2-3.8-3-9-4.2-14.2-3.1-5.3 1.1-10.3 4.2-14 8.8-3.6 4.6-5.6 10.2-5.4 15.6 0.1 5.4 2.4 10.1 6.2 13.1z"/>
	</g>
	<g id="f">
		<g id="e">
			<path id="d" class="s2" d="m1500 1306.5l-9.7 30 14.9 4.8"/>
			<path id="d" class="s2" d="m1500 1306.5l9.7 30-14.9 4.8"/>
		</g>
		<g id="e">
			<path id="d" class="s2" d="m1530 1328.3h-31.5v15.7"/>
			<path id="d" class="s2" d="m1530 1328.3l-25.5 18.5-9.3-12.8"/>
		</g>
		<g id="e">
			<path id="d" class="s2" d="m1470 1328.3l25.5 18.5 9.3-12.8"/>
			<path id="d" class="s2" d="m1470 1328.3h31.5v15.7"/>
		</g>
		<g id="e">
			<path id="d" class="s2" d="m1518.5 1363.5l-9.7-30-15 4.9"/>
			<path id="d" class="s2" d="m1518.5 1363.5l-25.5-18.5 9.3-12.8"/>
		</g>
		<g id="e">
			<path id="d" class="s2" d="m1481.5 1363.5l25.5-18.5-9.3-12.8"/>
			<path id="d" class="s2" d="m1481.5 1363.5l9.7-30 15 4.9"/>
		</g>
	</g>
	<g id="f">
		<g id="e">
			<path id="d" class="s2" d="m1565 1615.5l-9.7 30 14.9 4.8"/>
			<path id="d" class="s2" d="m1565 1615.5l9.7 30-14.9 4.8"/>
		</g>
		<g id="e">
			<path id="d" class="s2" d="m1595 1637.3h-31.5v15.7"/>
			<path id="d" class="s2" d="m1595 1637.3l-25.5 18.5-9.3-12.8"/>
		</g>
		<g id="e">
			<path id="d" class="s2" d="m1535 1637.3l25.5 18.5 9.3-12.8"/>
			<path id="d" class="s2" d="m1535 1637.3h31.5v15.7"/>
		</g>
		<g id="e">
			<path id="d" class="s2" d="m1583.5 1672.5l-9.7-30-15 4.9"/>
			<path id="d" class="s2" d="m1583.5 1672.5l-25.5-18.5 9.3-12.8"/>
		</g>
		<g id="e">
			<path id="d" class="s2" d="m1546.5 1672.5l25.5-18.5-9.3-12.8"/>
			<path id="d" class="s2" d="m1546.5 1672.5l9.7-30 15 4.9"/>
		</g>
	</g>
	<g id="f">
		<g id="e">
			<path id="d" class="s2" d="m1475 1686.8l-8.1 24.9 12.5 4.1"/>
			<path id="d" class="s2" d="m1475 1686.8l8.1 24.9-12.5 4.1"/>
		</g>
		<g id="e">
			<path id="d" class="s2" d="m1500 1704.9h-26.3v13.1"/>
			<path id="d" class="s2" d="m1500 1704.9l-21.3 15.4-7.7-10.6"/>
		</g>
		<g id="e">
			<path id="d" class="s2" d="m1450 1704.9l21.3 15.4 7.7-10.6"/>
			<path id="d" class="s2" d="m1450 1704.9h26.3v13.1"/>
		</g>
		<g id="e">
			<path id="d" class="s2" d="m1490.4 1734.2l-8.1-24.9-12.5 4"/>
			<path id="d" class="s2" d="m1490.4 1734.2l-21.2-15.4 7.7-10.6"/>
		</g>
		<g id="e">
			<path id="d" class="s2" d="m1459.6 1734.2l21.2-15.4-7.7-10.6"/>
			<path id="d" class="s2" d="m1459.6 1734.2l8.1-24.9 12.5 4"/>
		</g>
	</g>
	<g id="f">
		<g id="e">
			<path id="d" class="s2" d="m1637 1587l-4.6 14.3 7.1 2.3"/>
			<path id="d" class="s2" d="m1637 1587l4.6 14.3-7.1 2.3"/>
		</g>
		<g id="e">
			<path id="d" class="s2" d="m1651.3 1597.4h-15v7.5"/>
			<path id="d" class="s2" d="m1651.3 1597.4l-12.2 8.8-4.4-6.1"/>
		</g>
		<g id="e">
			<path id="d" class="s2" d="m1622.7 1597.4l12.2 8.8 4.4-6.1"/>
			<path id="d" class="s2" d="m1622.7 1597.4h15v7.5"/>
		</g>
		<g id="e">
			<path id="d" class="s2" d="m1645.8 1614.1l-4.6-14.2-7.2 2.3"/>
			<path id="d" class="s2" d="m1645.8 1614.1l-12.1-8.8 4.4-6"/>
		</g>
		<g id="e">
			<path id="d" class="s2" d="m1628.2 1614.1l12.1-8.8-4.4-6"/>
			<path id="d" class="s2" d="m1628.2 1614.1l4.6-14.2 7.2 2.3"/>
		</g>
	</g>
	<g id="f">
		<g id="e">
			<path id="d" class="s2" d="m1718 1693.8l-8.1 24.9 12.5 4.1"/>
			<path id="d" class="s2" d="m1718 1693.8l8.1 24.9-12.5 4.1"/>
		</g>
		<g id="e">
			<path id="d" class="s2" d="m1743 1711.9h-26.3v13.1"/>
			<path id="d" class="s2" d="m1743 1711.9l-21.3 15.4-7.7-10.6"/>
		</g>
		<g id="e">
			<path id="d" class="s2" d="m1693 1711.9l21.3 15.4 7.7-10.6"/>
			<path id="d" class="s2" d="m1693 1711.9h26.3v13.1"/>
		</g>
		<g id="e">
			<path id="d" class="s2" d="m1733.4 1741.2l-8.1-24.9-12.5 4"/>
			<path id="d" class="s2" d="m1733.4 1741.2l-21.2-15.4 7.7-10.6"/>
		</g>
		<g id="e">
			<path id="d" class="s2" d="m1702.6 1741.2l21.2-15.4-7.7-10.6"/>
			<path id="d" class="s2" d="m1702.6 1741.2l8.1-24.9 12.5 4"/>
		</g>
	</g>
	<g id="f">
		<g id="e">
			<path id="d" class="s2" d="m1696 1772l-6.5 20 10 3.2"/>
			<path id="d" class="s2" d="m1696 1772l6.5 20-10 3.2"/>
		</g>
		<g id="e">
			<path id="d" class="s2" d="m1716 1786.5h-21v10.5"/>
			<path id="d" class="s2" d="m1716 1786.5l-17 12.4-6.2-8.5"/>
		</g>
		<g id="e">
			<path id="d" class="s2" d="m1676 1786.5l17 12.4 6.2-8.5"/>
			<path id="d" class="s2" d="m1676 1786.5h21v10.5"/>
		</g>
		<g id="e">
			<path id="d" class="s2" d="m1708.3 1810l-6.4-20-10 3.3"/>
			<path id="d" class="s2" d="m1708.3 1810l-16.9-12.4 6.1-8.4"/>
		</g>
		<g id="e">
			<path id="d" class="s2" d="m1683.7 1810l16.9-12.4-6.1-8.4"/>
			<path id="d" class="s2" d="m1683.7 1810l6.4-20 10 3.3"/>
		</g>
	</g>
	<g id="f">
		<g id="e">
			<path id="d" class="s2" d="m2328 1210.5l-9.7 30 14.9 4.8"/>
			<path id="d" class="s2" d="m2328 1210.5l9.7 30-14.9 4.8"/>
		</g>
		<g id="e">
			<path id="d" class="s2" d="m2358 1232.3h-31.5v15.7"/>
			<path id="d" class="s2" d="m2358 1232.3l-25.5 18.5-9.3-12.8"/>
		</g>
		<g id="e">
			<path id="d" class="s2" d="m2298 1232.3l25.5 18.5 9.3-12.8"/>
			<path id="d" class="s2" d="m2298 1232.3h31.5v15.7"/>
		</g>
		<g id="e">
			<path id="d" class="s2" d="m2346.5 1267.5l-9.7-30-15 4.9"/>
			<path id="d" class="s2" d="m2346.5 1267.5l-25.5-18.5 9.3-12.8"/>
		</g>
		<g id="e">
			<path id="d" class="s2" d="m2309.5 1267.5l25.5-18.5-9.3-12.8"/>
			<path id="d" class="s2" d="m2309.5 1267.5l9.7-30 15 4.9"/>
		</g>
	</g>
	<g id="f">
		<g id="e">
			<path id="d" class="s2" d="m2615 1696.5l-9.7 30 14.9 4.8"/>
			<path id="d" class="s2" d="m2615 1696.5l9.7 30-14.9 4.8"/>
		</g>
		<g id="e">
			<path id="d" class="s2" d="m2645 1718.3h-31.5v15.7"/>
			<path id="d" class="s2" d="m2645 1718.3l-25.5 18.5-9.3-12.8"/>
		</g>
		<g id="e">
			<path id="d" class="s2" d="m2585 1718.3l25.5 18.5 9.3-12.8"/>
			<path id="d" class="s2" d="m2585 1718.3h31.5v15.7"/>
		</g>
		<g id="e">
			<path id="d" class="s2" d="m2633.5 1753.5l-9.7-30-15 4.9"/>
			<path id="d" class="s2" d="m2633.5 1753.5l-25.5-18.5 9.3-12.8"/>
		</g>
		<g id="e">
			<path id="d" class="s2" d="m2596.5 1753.5l25.5-18.5-9.3-12.8"/>
			<path id="d" class="s2" d="m2596.5 1753.5l9.7-30 15 4.9"/>
		</g>
	</g>
	<g id="f">
		<g id="e">
			<path id="d" class="s2" d="m2717 1714l-6.5 20 10 3.2"/>
			<path id="d" class="s2" d="m2717 1714l6.5 20-10 3.2"/>
		</g>
		<g id="e">
			<path id="d" class="s2" d="m2737 1728.5h-21v10.5"/>
			<path id="d" class="s2" d="m2737 1728.5l-17 12.4-6.2-8.5"/>
		</g>
		<g id="e">
			<path id="d" class="s2" d="m2697 1728.5l17 12.4 6.2-8.5"/>
			<path id="d" class="s2" d="m2697 1728.5h21v10.5"/>
		</g>
		<g id="e">
			<path id="d" class="s2" d="m2729.3 1752l-6.4-20-10 3.3"/>
			<path id="d" class="s2" d="m2729.3 1752l-16.9-12.4 6.1-8.4"/>
		</g>
		<g id="e">
			<path id="d" class="s2" d="m2704.7 1752l16.9-12.4-6.1-8.4"/>
			<path id="d" class="s2" d="m2704.7 1752l6.4-20 10 3.3"/>
		</g>
	</g>
	<g id="f">
		<g id="e">
			<path id="d" class="s2" d="m2645 1766.8l-8.1 24.9 12.5 4.1"/>
			<path id="d" class="s2" d="m2645 1766.8l8.1 24.9-12.5 4.1"/>
		</g>
		<g id="e">
			<path id="d" class="s2" d="m2670 1784.9h-26.3v13.1"/>
			<path id="d" class="s2" d="m2670 1784.9l-21.3 15.4-7.7-10.6"/>
		</g>
		<g id="e">
			<path id="d" class="s2" d="m2620 1784.9l21.3 15.4 7.7-10.6"/>
			<path id="d" class="s2" d="m2620 1784.9h26.3v13.1"/>
		</g>
		<g id="e">
			<path id="d" class="s2" d="m2660.4 1814.2l-8.1-24.9-12.5 4"/>
			<path id="d" class="s2" d="m2660.4 1814.2l-21.2-15.4 7.7-10.6"/>
		</g>
		<g id="e">
			<path id="d" class="s2" d="m2629.6 1814.2l21.2-15.4-7.7-10.6"/>
			<path id="d" class="s2" d="m2629.6 1814.2l8.1-24.9 12.5 4"/>
		</g>
	</g>
	<g id="f">
		<g id="e">
			<path id="d" class="s2" d="m2468 1920.8l-8.1 24.9 12.5 4.1"/>
			<path id="d" class="s2" d="m2468 1920.8l8.1 24.9-12.5 4.1"/>
		</g>
		<g id="e">
			<path id="d" class="s2" d="m2493 1938.9h-26.3v13.1"/>
			<path id="d" class="s2" d="m2493 1938.9l-21.3 15.4-7.7-10.6"/>
		</g>
		<g id="e">
			<path id="d" class="s2" d="m2443 1938.9l21.3 15.4 7.7-10.6"/>
			<path id="d" class="s2" d="m2443 1938.9h26.3v13.1"/>
		</g>
		<g id="e">
			<path id="d" class="s2" d="m2483.4 1968.2l-8.1-24.9-12.5 4"/>
			<path id="d" class="s2" d="m2483.4 1968.2l-21.2-15.4 7.7-10.6"/>
		</g>
		<g id="e">
			<path id="d" class="s2" d="m2452.6 1968.2l21.2-15.4-7.7-10.6"/>
			<path id="d" class="s2" d="m2452.6 1968.2l8.1-24.9 12.5 4"/>
		</g>
	</g>
	<g id="f">
		<g id="e">
			<path id="d" class="s2" d="m2467 2000l-6.5 20 10 3.2"/>
			<path id="d" class="s2" d="m2467 2000l6.5 20-10 3.2"/>
		</g>
		<g id="e">
			<path id="d" class="s2" d="m2487 2014.5h-21v10.5"/>
			<path id="d" class="s2" d="m2487 2014.5l-17 12.4-6.2-8.5"/>
		</g>
		<g id="e">
			<path id="d" class="s2" d="m2447 2014.5l17 12.4 6.2-8.5"/>
			<path id="d" class="s2" d="m2447 2014.5h21v10.5"/>
		</g>
		<g id="e">
			<path id="d" class="s2" d="m2479.3 2038l-6.4-20-10 3.3"/>
			<path id="d" class="s2" d="m2479.3 2038l-16.9-12.4 6.1-8.4"/>
		</g>
		<g id="e">
			<path id="d" class="s2" d="m2454.7 2038l16.9-12.4-6.1-8.4"/>
			<path id="d" class="s2" d="m2454.7 2038l6.4-20 10 3.3"/>
		</g>
	</g>
	<g id="f">
		<g id="e">
			<path id="d" class="s2" d="m2541 1868l-6.5 20 10 3.2"/>
			<path id="d" class="s2" d="m2541 1868l6.5 20-10 3.2"/>
		</g>
		<g id="e">
			<path id="d" class="s2" d="m2561 1882.5h-21v10.5"/>
			<path id="d" class="s2" d="m2561 1882.5l-17 12.4-6.2-8.5"/>
		</g>
		<g id="e">
			<path id="d" class="s2" d="m2521 1882.5l17 12.4 6.2-8.5"/>
			<path id="d" class="s2" d="m2521 1882.5h21v10.5"/>
		</g>
		<g id="e">
			<path id="d" class="s2" d="m2553.3 1906l-6.4-20-10 3.3"/>
			<path id="d" class="s2" d="m2553.3 1906l-16.9-12.4 6.1-8.4"/>
		</g>
		<g id="e">
			<path id="d" class="s2" d="m2528.7 1906l16.9-12.4-6.1-8.4"/>
			<path id="d" class="s2" d="m2528.7 1906l6.4-20 10 3.3"/>
		</g>
	</g>
	<g id="f">
		<g id="e">
			<path id="d" class="s2" d="m2600 1825.8l-8.1 24.9 12.5 4.1"/>
			<path id="d" class="s2" d="m2600 1825.8l8.1 24.9-12.5 4.1"/>
		</g>
		<g id="e">
			<path id="d" class="s2" d="m2625 1843.9h-26.3v13.1"/>
			<path id="d" class="s2" d="m2625 1843.9l-21.3 15.4-7.7-10.6"/>
		</g>
		<g id="e">
			<path id="d" class="s2" d="m2575 1843.9l21.3 15.4 7.7-10.6"/>
			<path id="d" class="s2" d="m2575 1843.9h26.3v13.1"/>
		</g>
		<g id="e">
			<path id="d" class="s2" d="m2615.4 1873.2l-8.1-24.9-12.5 4"/>
			<path id="d" class="s2" d="m2615.4 1873.2l-21.2-15.4 7.7-10.6"/>
		</g>
		<g id="e">
			<path id="d" class="s2" d="m2584.6 1873.2l21.2-15.4-7.7-10.6"/>
			<path id="d" class="s2" d="m2584.6 1873.2l8.1-24.9 12.5 4"/>
		</g>
	</g>
	<g id="f">
		<g id="e">
			<path id="d" class="s2" d="m2465 1854l-6.5 20 10 3.2"/>
			<path id="d" class="s2" d="m2465 1854l6.5 20-10 3.2"/>
		</g>
		<g id="e">
			<path id="d" class="s2" d="m2485 1868.5h-21v10.5"/>
			<path id="d" class="s2" d="m2485 1868.5l-17 12.4-6.2-8.5"/>
		</g>
		<g id="e">
			<path id="d" class="s2" d="m2445 1868.5l17 12.4 6.2-8.5"/>
			<path id="d" class="s2" d="m2445 1868.5h21v10.5"/>
		</g>
		<g id="e">
			<path id="d" class="s2" d="m2477.3 1892l-6.4-20-10 3.3"/>
			<path id="d" class="s2" d="m2477.3 1892l-16.9-12.4 6.1-8.4"/>
		</g>
		<g id="e">
			<path id="d" class="s2" d="m2452.7 1892l16.9-12.4-6.1-8.4"/>
			<path id="d" class="s2" d="m2452.7 1892l6.4-20 10 3.3"/>
		</g>
	</g>
	<g id="f">
		<g id="e">
			<path id="d" class="s2" d="m1820 1473.8l-8.1 24.9 12.5 4.1"/>
			<path id="d" class="s2" d="m1820 1473.8l8.1 24.9-12.5 4.1"/>
		</g>
		<g id="e">
			<path id="d" class="s2" d="m1845 1491.9h-26.3v13.1"/>
			<path id="d" class="s2" d="m1845 1491.9l-21.3 15.4-7.7-10.6"/>
		</g>
		<g id="e">
			<path id="d" class="s2" d="m1795 1491.9l21.3 15.4 7.7-10.6"/>
			<path id="d" class="s2" d="m1795 1491.9h26.3v13.1"/>
		</g>
		<g id="e">
			<path id="d" class="s2" d="m1835.4 1521.2l-8.1-24.9-12.5 4"/>
			<path id="d" class="s2" d="m1835.4 1521.2l-21.2-15.4 7.7-10.6"/>
		</g>
		<g id="e">
			<path id="d" class="s2" d="m1804.6 1521.2l21.2-15.4-7.7-10.6"/>
			<path id="d" class="s2" d="m1804.6 1521.2l8.1-24.9 12.5 4"/>
		</g>
	</g>
	<g id="f">
		<g id="e">
			<path id="d" class="s2" d="m2300 1412l-6.5 20 10 3.2"/>
			<path id="d" class="s2" d="m2300 1412l6.5 20-10 3.2"/>
		</g>
		<g id="e">
			<path id="d" class="s2" d="m2320 1426.5h-21v10.5"/>
			<path id="d" class="s2" d="m2320 1426.5l-17 12.4-6.2-8.5"/>
		</g>
		<g id="e">
			<path id="d" class="s2" d="m2280 1426.5l17 12.4 6.2-8.5"/>
			<path id="d" class="s2" d="m2280 1426.5h21v10.5"/>
		</g>
		<g id="e">
			<path id="d" class="s2" d="m2312.3 1450l-6.4-20-10 3.3"/>
			<path id="d" class="s2" d="m2312.3 1450l-16.9-12.4 6.1-8.4"/>
		</g>
		<g id="e">
			<path id="d" class="s2" d="m2287.7 1450l16.9-12.4-6.1-8.4"/>
			<path id="d" class="s2" d="m2287.7 1450l6.4-20 10 3.3"/>
		</g>
	</g>
	<g id="f">
		<g id="e">
			<path id="d" class="s2" d="m2100 1768.5l-9.7 30 14.9 4.8"/>
			<path id="d" class="s2" d="m2100 1768.5l9.7 30-14.9 4.8"/>
		</g>
		<g id="e">
			<path id="d" class="s2" d="m2130 1790.3h-31.5v15.7"/>
			<path id="d" class="s2" d="m2130 1790.3l-25.5 18.5-9.3-12.8"/>
		</g>
		<g id="e">
			<path id="d" class="s2" d="m2070 1790.3l25.5 18.5 9.3-12.8"/>
			<path id="d" class="s2" d="m2070 1790.3h31.5v15.7"/>
		</g>
		<g id="e">
			<path id="d" class="s2" d="m2118.5 1825.5l-9.7-30-15 4.9"/>
			<path id="d" class="s2" d="m2118.5 1825.5l-25.5-18.5 9.3-12.8"/>
		</g>
		<g id="e">
			<path id="d" class="s2" d="m2081.5 1825.5l25.5-18.5-9.3-12.8"/>
			<path id="d" class="s2" d="m2081.5 1825.5l9.7-30 15 4.9"/>
		</g>
	</g>
	<g id="f">
		<g id="e">
			<path id="d" class="s2" d="m2185 1627.8l-8.1 24.9 12.5 4.1"/>
			<path id="d" class="s2" d="m2185 1627.8l8.1 24.9-12.5 4.1"/>
		</g>
		<g id="e">
			<path id="d" class="s2" d="m2210 1645.9h-26.3v13.1"/>
			<path id="d" class="s2" d="m2210 1645.9l-21.3 15.4-7.7-10.6"/>
		</g>
		<g id="e">
			<path id="d" class="s2" d="m2160 1645.9l21.3 15.4 7.7-10.6"/>
			<path id="d" class="s2" d="m2160 1645.9h26.3v13.1"/>
		</g>
		<g id="e">
			<path id="d" class="s2" d="m2200.4 1675.2l-8.1-24.9-12.5 4"/>
			<path id="d" class="s2" d="m2200.4 1675.2l-21.2-15.4 7.7-10.6"/>
		</g>
		<g id="e">
			<path id="d" class="s2" d="m2169.6 1675.2l21.2-15.4-7.7-10.6"/>
			<path id="d" class="s2" d="m2169.6 1675.2l8.1-24.9 12.5 4"/>
		</g>
	</g>
	<g id="f">
		<g id="e">
			<path id="d" class="s2" d="m2100 1561.8l-8.1 24.9 12.5 4.1"/>
			<path id="d" class="s2" d="m2100 1561.8l8.1 24.9-12.5 4.1"/>
		</g>
		<g id="e">
			<path id="d" class="s2" d="m2125 1579.9h-26.3v13.1"/>
			<path id="d" class="s2" d="m2125 1579.9l-21.3 15.4-7.7-10.6"/>
		</g>
		<g id="e">
			<path id="d" class="s2" d="m2075 1579.9l21.3 15.4 7.7-10.6"/>
			<path id="d" class="s2" d="m2075 1579.9h26.3v13.1"/>
		</g>
		<g id="e">
			<path id="d" class="s2" d="m2115.4 1609.2l-8.1-24.9-12.5 4"/>
			<path id="d" class="s2" d="m2115.4 1609.2l-21.2-15.4 7.7-10.6"/>
		</g>
		<g id="e">
			<path id="d" class="s2" d="m2084.6 1609.2l21.2-15.4-7.7-10.6"/>
			<path id="d" class="s2" d="m2084.6 1609.2l8.1-24.9 12.5 4"/>
		</g>
	</g>
	<g id="f">
		<g id="e">
			<path id="d" class="s2" d="m2026 1633l-6.5 20 10 3.2"/>
			<path id="d" class="s2" d="m2026 1633l6.5 20-10 3.2"/>
		</g>
		<g id="e">
			<path id="d" class="s2" d="m2046 1647.5h-21v10.5"/>
			<path id="d" class="s2" d="m2046 1647.5l-17 12.4-6.2-8.5"/>
		</g>
		<g id="e">
			<path id="d" class="s2" d="m2006 1647.5l17 12.4 6.2-8.5"/>
			<path id="d" class="s2" d="m2006 1647.5h21v10.5"/>
		</g>
		<g id="e">
			<path id="d" class="s2" d="m2038.3 1671l-6.4-20-10 3.3"/>
			<path id="d" class="s2" d="m2038.3 1671l-16.9-12.4 6.1-8.4"/>
		</g>
		<g id="e">
			<path id="d" class="s2" d="m2013.7 1671l16.9-12.4-6.1-8.4"/>
			<path id="d" class="s2" d="m2013.7 1671l6.4-20 10 3.3"/>
		</g>
	</g>
	<g id="f">
		<g id="e">
			<path id="d" class="s2" d="m2063 1690l-4.6 14.3 7.1 2.3"/>
			<path id="d" class="s2" d="m2063 1690l4.6 14.3-7.1 2.3"/>
		</g>
		<g id="e">
			<path id="d" class="s2" d="m2077.3 1700.4h-15v7.5"/>
			<path id="d" class="s2" d="m2077.3 1700.4l-12.2 8.8-4.4-6.1"/>
		</g>
		<g id="e">
			<path id="d" class="s2" d="m2048.7 1700.4l12.2 8.8 4.4-6.1"/>
			<path id="d" class="s2" d="m2048.7 1700.4h15v7.5"/>
		</g>
		<g id="e">
			<path id="d" class="s2" d="m2071.8 1717.1l-4.6-14.2-7.2 2.3"/>
			<path id="d" class="s2" d="m2071.8 1717.1l-12.1-8.8 4.4-6"/>
		</g>
		<g id="e">
			<path id="d" class="s2" d="m2054.2 1717.1l12.1-8.8-4.4-6"/>
			<path id="d" class="s2" d="m2054.2 1717.1l4.6-14.2 7.2 2.3"/>
		</g>
	</g>
	<g id="f">
		<g id="e">
			<path id="d" class="s2" d="m2320 1938.8l-8.1 24.9 12.5 4.1"/>
			<path id="d" class="s2" d="m2320 1938.8l8.1 24.9-12.5 4.1"/>
		</g>
		<g id="e">
			<path id="d" class="s2" d="m2345 1956.9h-26.3v13.1"/>
			<path id="d" class="s2" d="m2345 1956.9l-21.3 15.4-7.7-10.6"/>
		</g>
		<g id="e">
			<path id="d" class="s2" d="m2295 1956.9l21.3 15.4 7.7-10.6"/>
			<path id="d" class="s2" d="m2295 1956.9h26.3v13.1"/>
		</g>
		<g id="e">
			<path id="d" class="s2" d="m2335.4 1986.2l-8.1-24.9-12.5 4"/>
			<path id="d" class="s2" d="m2335.4 1986.2l-21.2-15.4 7.7-10.6"/>
		</g>
		<g id="e">
			<path id="d" class="s2" d="m2304.6 1986.2l21.2-15.4-7.7-10.6"/>
			<path id="d" class="s2" d="m2304.6 1986.2l8.1-24.9 12.5 4"/>
		</g>
	</g>
	<g id="f">
		<g id="e">
			<path id="d" class="s2" d="m2383 1879l-6.5 20 10 3.2"/>
			<path id="d" class="s2" d="m2383 1879l6.5 20-10 3.2"/>
		</g>
		<g id="e">
			<path id="d" class="s2" d="m2403 1893.5h-21v10.5"/>
			<path id="d" class="s2" d="m2403 1893.5l-17 12.4-6.2-8.5"/>
		</g>
		<g id="e">
			<path id="d" class="s2" d="m2363 1893.5l17 12.4 6.2-8.5"/>
			<path id="d" class="s2" d="m2363 1893.5h21v10.5"/>
		</g>
		<g id="e">
			<path id="d" class="s2" d="m2395.3 1917l-6.4-20-10 3.3"/>
			<path id="d" class="s2" d="m2395.3 1917l-16.9-12.4 6.1-8.4"/>
		</g>
		<g id="e">
			<path id="d" class="s2" d="m2370.7 1917l16.9-12.4-6.1-8.4"/>
			<path id="d" class="s2" d="m2370.7 1917l6.4-20 10 3.3"/>
		</g>
	</g>
	<g id="f">
		<g id="e">
			<path id="d" class="s2" d="m2262 1861l-6.5 20 10 3.2"/>
			<path id="d" class="s2" d="m2262 1861l6.5 20-10 3.2"/>
		</g>
		<g id="e">
			<path id="d" class="s2" d="m2282 1875.5h-21v10.5"/>
			<path id="d" class="s2" d="m2282 1875.5l-17 12.4-6.2-8.5"/>
		</g>
		<g id="e">
			<path id="d" class="s2" d="m2242 1875.5l17 12.4 6.2-8.5"/>
			<path id="d" class="s2" d="m2242 1875.5h21v10.5"/>
		</g>
		<g id="e">
			<path id="d" class="s2" d="m2274.3 1899l-6.4-20-10 3.3"/>
			<path id="d" class="s2" d="m2274.3 1899l-16.9-12.4 6.1-8.4"/>
		</g>
		<g id="e">
			<path id="d" class="s2" d="m2249.7 1899l16.9-12.4-6.1-8.4"/>
			<path id="d" class="s2" d="m2249.7 1899l6.4-20 10 3.3"/>
		</g>
	</g>
	<g id="f">
		<g id="e">
			<path id="d" class="s2" d="m1805 1828.5l-9.7 30 14.9 4.8"/>
			<path id="d" class="s2" d="m1805 1828.5l9.7 30-14.9 4.8"/>
		</g>
		<g id="e">
			<path id="d" class="s2" d="m1835 1850.3h-31.5v15.7"/>
			<path id="d" class="s2" d="m1835 1850.3l-25.5 18.5-9.3-12.8"/>
		</g>
		<g id="e">
			<path id="d" class="s2" d="m1775 1850.3l25.5 18.5 9.3-12.8"/>
			<path id="d" class="s2" d="m1775 1850.3h31.5v15.7"/>
		</g>
		<g id="e">
			<path id="d" class="s2" d="m1823.5 1885.5l-9.7-30-15 4.9"/>
			<path id="d" class="s2" d="m1823.5 1885.5l-25.5-18.5 9.3-12.8"/>
		</g>
		<g id="e">
			<path id="d" class="s2" d="m1786.5 1885.5l25.5-18.5-9.3-12.8"/>
			<path id="d" class="s2" d="m1786.5 1885.5l9.7-30 15 4.9"/>
		</g>
	</g>
	<g id="f">
		<g id="e">
			<path id="d" class="s2" d="m2100 2034.5l-3.2 10 4.9 1.6"/>
			<path id="d" class="s2" d="m2100 2034.5l3.2 10-4.9 1.6"/>
		</g>
		<g id="e">
			<path id="d" class="s2" d="m2110 2041.8h-10.5v5.2"/>
			<path id="d" class="s2" d="m2110 2041.8l-8.5 6.1-3.1-4.2"/>
		</g>
		<g id="e">
			<path id="d" class="s2" d="m2090 2041.8l8.5 6.1 3.1-4.2"/>
			<path id="d" class="s2" d="m2090 2041.8h10.5v5.2"/>
		</g>
		<g id="e">
			<path id="d" class="s2" d="m2106.2 2053.5l-3.3-10-5 1.6"/>
			<path id="d" class="s2" d="m2106.2 2053.5l-8.5-6.2 3.1-4.2"/>
		</g>
		<g id="e">
			<path id="d" class="s2" d="m2093.8 2053.5l8.5-6.2-3.1-4.2"/>
			<path id="d" class="s2" d="m2093.8 2053.5l3.3-10 5 1.6"/>
		</g>
	</g>
</svg>